<?xml version="1.0" standalone="no"?>
<!DOCTYPE svg PUBLIC "-//W3C//DTD SVG 20010904//EN"
 "http://www.w3.org/TR/2001/REC-SVG-20010904/DTD/svg10.dtd">
<svg version="1.0" xmlns="http://www.w3.org/2000/svg"
 width="260.000000pt" height="260.000000pt" viewBox="0 0 260.000000 260.000000"
 preserveAspectRatio="xMidYMid meet">
<metadata>
Created by potrace 1.14, written by Peter Selinger 2001-2017
</metadata>
<g transform="translate(0.000000,260.000000) scale(0.100000,-0.100000)"
fill="#000000" stroke="none">
<path d="M1520 2484 c-124 -12 -256 -26 -295 -29 -101 -10 -143 -22 -157 -48
-9 -16 -12 -118 -12 -372 -1 -228 -4 -349 -11 -347 -106 26 -178 20 -240 -20
-98 -65 -94 -192 7 -252 115 -67 269 -29 313 78 10 24 13 120 12 402 0 204 3
376 7 382 3 6 14 10 24 10 17 -1 146 10 192 17 14 2 57 7 97 10 40 4 85 8 100
10 15 2 66 6 113 10 47 4 92 9 101 11 15 4 17 -18 17 -243 0 -136 -2 -251 -4
-254 -2 -4 -24 0 -49 8 -101 34 -228 -16 -260 -101 -53 -139 126 -259 286
-192 42 18 91 66 101 98 12 43 9 778 -4 801 -28 54 -25 54 -338 21z"/>
<path d="M180 1291 c-108 -35 -171 -114 -176 -222 -5 -108 42 -186 141 -234
l47 -22 -53 -6 c-62 -8 -113 -49 -130 -107 -7 -22 -9 -140 -7 -315 3 -271 4
-281 25 -311 50 -70 42 -69 413 -72 184 -2 350 0 368 3 41 8 96 55 112 97 8
18 14 34 15 36 1 1 31 -11 66 -27 118 -54 207 -91 218 -91 25 0 61 25 71 49 7
19 10 131 8 355 l-3 327 -25 19 c-14 11 -36 19 -50 19 -14 0 -83 -26 -155 -58
l-130 -59 -7 24 c-15 55 -84 112 -138 114 l-25 2 25 7 c113 35 182 127 182
241 0 127 -98 230 -225 236 -70 3 -108 -9 -164 -50 -40 -29 -93 -113 -93 -147
-1 -8 -9 10 -19 39 -21 61 -49 94 -108 129 -46 27 -138 39 -183 24z m320 -310
c15 -57 81 -126 141 -149 l51 -19 -204 0 c-111 0 -194 3 -183 6 32 10 86 41
111 65 27 26 64 94 64 118 0 30 9 20 20 -21z"/>
<path d="M1775 1207 c-72 -19 -125 -49 -189 -108 -52 -47 -62 -52 -107 -53
-46 -2 -53 -6 -109 -61 -33 -33 -63 -68 -66 -78 -5 -15 21 -47 112 -138 65
-66 126 -119 135 -119 9 0 46 31 82 69 56 57 65 72 61 95 -7 43 -9 45 261
-243 33 -35 80 -84 105 -110 25 -26 110 -116 189 -199 79 -84 151 -152 160
-152 21 0 161 140 161 161 0 18 -14 34 -131 144 -47 44 -162 153 -256 243 -94
89 -181 172 -194 183 -13 11 -56 52 -96 90 -71 68 -72 69 -50 83 35 23 116 46
186 54 44 5 67 12 75 25 17 27 -2 48 -75 84 -78 39 -176 50 -254 30z"/>
</g>
</svg>
